<?xml version="1.0" encoding="UTF-8"?>
<svg id="Layer_1" data-name="Layer 1" xmlns="http://www.w3.org/2000/svg" viewBox="0 0 746.62 629.52">
  <defs>
    <style>
      .cls-1 {
        fill: none;
        stroke: #231f20;
        stroke-miterlimit: 10;
        stroke-width: 15px;
      }
    </style>
  </defs>
  <path class="cls-1" d="m59.15,7.5c-.46,0-.79.44-.66.87l146.9,528.32,489.99-56.57c.38-.05.61-.45.46-.8l-17.69-51.01"/>
  <path class="cls-1" d="m155.8,622.32l50.09-79.24,489.48-62.95c.61-.08,1.04.59.72,1.11l-38.11,61.37h0c-.48.76-1.27,1.28-2.15,1.41l-497.52,77.98c-1.43.18-2.78-.71-3.17-2.1L8.16,86.74,57.71,14.31c.3-.44.97-.33,1.11.18l147.07,528.58"/>
  <path class="cls-1" d="m21.3,67.58L58.24,7.5h442.72l233.73,412.48-432.01,63.65S196.66,368.14,61.8,20.27l-40.5,47.31Z"/>
  <g>
    <polyline class="cls-1" points="439.17 311.18 411.78 250.47 275.32 244.15 244.78 176.46 311.49 40.31 456.8 80.8 485.16 143.66 445.47 196.48 510.85 200.61 540.18 265.61 472.82 399.1 327.92 360.73 302.95 305.4 343.31 251.63"/>
    <polyline class="cls-1" points="352.73 132.93 378.9 190.95 445.47 196.48"/>
  </g>
</svg>